# xmcd
#
# Track frame offsets: 
#        150
#        9525
#        18475
#        30662
#        40485
#        52127
#        62687
#        74062
#        84767
#        95065
#        110172
#        122532
#        133522
#        145820
#        157697
#        170165
#        185632
#        197112
#        208617
#        220962
#        232872
#        242730
#        254830
#
# Disc length: 3567 seconds
#
# Revision: 6
# Processed by: cddbd v1.5.2PL0 Copyright (c) Steve Scherf et al.
# Submitted via: ExactAudioCopyFreeDBPlugin 1.0
#
DISCID=570ded17
DTITLE=Various Artist - The Scepter Records Story [Capricorn box set]
DYEAR=1992
DGENRE=Rhythm and Blues
TTITLE0=The Shirelles - Dedicated to the One I Love
TTITLE1=The Shirelles - Tonight's the Night
TTITLE2=The Shirelles - Will You Love Me Tomorrow
TTITLE3=The Shirelles - Boys
TTITLE4=Maxine Brown - All in My Mind
TTITLE5=Chuck Jackson - I Don't Want to Cry
TTITLE6=Maxine Brown - Funny
TTITLE7=The Shirelles - Mama Said (alternate version) (previously unre
TTITLE7=leased)
TTITLE8=Chuck Jackson - I Wake Up Crying
TTITLE9=The Shirelles - Blue Holiday (alternate version) (previously u
TTITLE9=nreleased)
TTITLE10=Tommy Hunt - Human
TTITLE11=The Shirelles - Big John
TTITLE12=The Shirelles - Baby It's You
TTITLE13=The Isley Brothers - Time After Time
TTITLE14=The Shirelles - Soldier Boy
TTITLE15=Chuck Jackson - Any Day Now (My Wild Beautiful Bird)
TTITLE16=The Isley Brothers - Twist and Shout
TTITLE17=The Shirelles - Welcome Home Baby
TTITLE18=Chuck Jackson - I Keep Forgettin'
TTITLE19=The Isley Brothers - Twistin' with Linda
TTITLE20=The Shirelles - Love is a Swingin' Thing
TTITLE21=King Curtis - Potatoe Chips
TTITLE22=Tommy Hunt - I Just Don't Know What to Do With Myself
EXTD=YEAR: 1992 ID3G:  17
EXTT0=
EXTT1=
EXTT2=
EXTT3=
EXTT4=
EXTT5=
EXTT6=
EXTT7=
EXTT8=
EXTT9=
EXTT10=
EXTT11=
EXTT12=
EXTT13=
EXTT14=
EXTT15=
EXTT16=
EXTT17=
EXTT18=
EXTT19=
EXTT20=
EXTT21=
EXTT22=
PLAYORDER=
